<svg xmlns="http://www.w3.org/2000/svg" width="900" height="1000" viewBox="0 0 900 1000">
  <defs>
    <linearGradient id="g" x1="0" y1="0" x2="1" y2="1">
      <stop offset="0" stop-color="#efe3d4"/>
      <stop offset="1" stop-color="#e0a87e"/>
    </linearGradient>
  </defs>
  <rect width="900" height="1000" fill="url(#g)"/>
  <g transform="translate(450 520)">
    <ellipse cx="0" cy="240" rx="220" ry="34" fill="#000" opacity="0.12"/>
    <rect x="-150" y="60" width="130" height="190" rx="50" fill="#f0c8a8"/>
    <rect x="20" y="60" width="130" height="190" rx="50" fill="#e9bd9a"/>
    <circle cx="-85" cy="-30" r="110" fill="#f4d2b8"/>
    <circle cx="85" cy="-10" r="110" fill="#eec6a4"/>
    <circle cx="-118" cy="-25" r="14" fill="#3a2b25"/>
    <circle cx="-52" cy="-25" r="14" fill="#3a2b25"/>
    <circle cx="52" cy="-5" r="30" fill="none" stroke="#3a2b25" stroke-width="6"/>
    <circle cx="118" cy="-5" r="30" fill="none" stroke="#3a2b25" stroke-width="6"/>
    <line x1="82" y1="-5" x2="88" y2="-5" stroke="#3a2b25" stroke-width="6"/>
  </g>
  <g transform="translate(640 760) rotate(30)">
    <rect x="-8" y="-160" width="16" height="160" rx="8" fill="#5a78b0"/>
    <path d="M-8 -160 L0 -200 L8 -160 Z" fill="#3a2b25"/>
  </g>
  <text x="450" y="940" text-anchor="middle" font-family="Arial, sans-serif" font-size="20" fill="#7a5a3f" opacity="0.7">imagen de ejemplo — reemplázala</text>
</svg>
