<svg xmlns="http://www.w3.org/2000/svg" width="800" height="800" viewBox="0 0 800 800">
  <rect width="800" height="800" fill="#1f1a16"/>
  <g transform="translate(400 410)">
    <rect x="-260" y="-120" width="520" height="300" rx="18" fill="#caa274"/>
    <rect x="-260" y="-160" width="520" height="60" rx="12" fill="#d9b487"/>
    <rect x="-240" y="-100" width="250" height="250" rx="10" fill="#e7d2b5"/>
    <g transform="translate(-115 30)">
      <circle cx="0" cy="-40" r="48" fill="#efe0cb"/>
      <rect x="-30" y="0" width="60" height="70" rx="18" fill="#efe0cb"/>
      <circle cx="-16" cy="-44" r="6" fill="#3a2b25"/>
      <circle cx="16" cy="-44" r="6" fill="#3a2b25"/>
    </g>
    <g transform="translate(40 -90)">
      <circle cx="0" cy="0" r="22" fill="#7e9e8a"/>
      <circle cx="50" cy="6" r="22" fill="#e89ab0"/>
      <circle cx="100" cy="0" r="22" fill="#e0a87e"/>
      <circle cx="25" cy="50" r="22" fill="#9bb0a4"/>
      <circle cx="75" cy="52" r="22" fill="#d98c5f"/>
    </g>
    <g transform="translate(150 60) rotate(35)">
      <rect x="-6" y="-90" width="12" height="120" rx="6" fill="#8a6d4f"/>
      <rect x="-9" y="-110" width="18" height="26" rx="4" fill="#c0c0c0"/>
      <path d="M-9 -110 L0 -130 L9 -110 Z" fill="#3a2b25"/>
    </g>
  </g>
  <text x="400" y="740" text-anchor="middle" font-family="Arial, sans-serif" font-size="20" fill="#caa274" opacity="0.8">imagen de ejemplo del kit — reemplázala</text>
</svg>
